<svg xmlns="http://www.w3.org/2000/svg" xmlns:xlink="http://www.w3.org/1999/xlink" width="500" zoomAndPan="magnify" viewBox="0 0 375 374.999991" height="500" preserveAspectRatio="xMidYMid meet" version="1.0"><defs><g/><clipPath id="a38a3ea846"><path d="M 91.875 151.335938 L 283.125 151.335938 L 283.125 157.300781 L 91.875 157.300781 Z M 277.035156 157.300781 L 283.125 157.300781 L 283.125 239.125 L 277.035156 239.125 Z M 91.875 157.300781 L 97.839844 157.300781 L 97.839844 239.125 L 91.875 239.125 Z M 91.875 239.125 L 283.125 239.125 L 283.125 245.214844 L 91.875 245.214844 Z M 91.875 239.125 " clip-rule="nonzero"/></clipPath><clipPath id="de2b31bf27"><path d="M 110.574219 157.292969 L 226 157.292969 L 226 239.042969 L 110.574219 239.042969 Z M 110.574219 157.292969 " clip-rule="nonzero"/></clipPath><clipPath id="b96e3948d0"><path d="M 225 164 L 264.324219 164 L 264.324219 233 L 225 233 Z M 225 164 " clip-rule="nonzero"/></clipPath></defs><g fill="#231f20" fill-opacity="1"><g transform="translate(91.325543, 263.865275)"><g><path d="M 11.78125 -9.796875 L 11.78125 0 L 10.78125 0 L 10.78125 -7.84375 L 6.9375 -1.25 L 6.4375 -1.25 L 2.59375 -7.796875 L 2.59375 0 L 1.59375 0 L 1.59375 -9.796875 L 2.453125 -9.796875 L 6.703125 -2.53125 L 10.921875 -9.796875 Z M 11.78125 -9.796875 "/></g></g></g><g fill="#231f20" fill-opacity="1"><g transform="translate(112.514059, 263.865275)"><g><path d="M 5.546875 0.078125 C 4.273438 0.078125 3.285156 -0.28125 2.578125 -1 C 1.867188 -1.726562 1.515625 -2.789062 1.515625 -4.1875 L 1.515625 -9.796875 L 2.546875 -9.796875 L 2.546875 -4.234375 C 2.546875 -3.085938 2.800781 -2.234375 3.3125 -1.671875 C 3.832031 -1.117188 4.578125 -0.84375 5.546875 -0.84375 C 6.523438 -0.84375 7.269531 -1.117188 7.78125 -1.671875 C 8.289062 -2.234375 8.546875 -3.085938 8.546875 -4.234375 L 8.546875 -9.796875 L 9.5625 -9.796875 L 9.5625 -4.1875 C 9.5625 -2.789062 9.207031 -1.726562 8.5 -1 C 7.800781 -0.28125 6.816406 0.078125 5.546875 0.078125 Z M 5.546875 0.078125 "/></g></g></g><g fill="#231f20" fill-opacity="1"><g transform="translate(131.421847, 263.865275)"><g><path d="M 4.296875 0.078125 C 3.566406 0.078125 2.867188 -0.0351562 2.203125 -0.265625 C 1.535156 -0.492188 1.019531 -0.800781 0.65625 -1.1875 L 1.0625 -1.984375 C 1.414062 -1.628906 1.882812 -1.34375 2.46875 -1.125 C 3.0625 -0.90625 3.671875 -0.796875 4.296875 -0.796875 C 5.171875 -0.796875 5.828125 -0.957031 6.265625 -1.28125 C 6.710938 -1.601562 6.9375 -2.019531 6.9375 -2.53125 C 6.9375 -2.925781 6.816406 -3.238281 6.578125 -3.46875 C 6.335938 -3.707031 6.046875 -3.890625 5.703125 -4.015625 C 5.359375 -4.140625 4.875 -4.273438 4.25 -4.421875 C 3.519531 -4.609375 2.929688 -4.785156 2.484375 -4.953125 C 2.046875 -5.128906 1.671875 -5.394531 1.359375 -5.75 C 1.046875 -6.101562 0.890625 -6.585938 0.890625 -7.203125 C 0.890625 -7.691406 1.019531 -8.140625 1.28125 -8.546875 C 1.550781 -8.953125 1.953125 -9.273438 2.484375 -9.515625 C 3.023438 -9.765625 3.703125 -9.890625 4.515625 -9.890625 C 5.066406 -9.890625 5.609375 -9.8125 6.140625 -9.65625 C 6.679688 -9.5 7.148438 -9.285156 7.546875 -9.015625 L 7.203125 -8.1875 C 6.785156 -8.457031 6.34375 -8.660156 5.875 -8.796875 C 5.414062 -8.929688 4.960938 -9 4.515625 -9 C 3.648438 -9 3 -8.832031 2.5625 -8.5 C 2.132812 -8.175781 1.921875 -7.75 1.921875 -7.21875 C 1.921875 -6.832031 2.035156 -6.519531 2.265625 -6.28125 C 2.503906 -6.039062 2.800781 -5.859375 3.15625 -5.734375 C 3.519531 -5.609375 4.007812 -5.46875 4.625 -5.3125 C 5.34375 -5.132812 5.921875 -4.957031 6.359375 -4.78125 C 6.804688 -4.613281 7.179688 -4.351562 7.484375 -4 C 7.796875 -3.65625 7.953125 -3.1875 7.953125 -2.59375 C 7.953125 -2.09375 7.816406 -1.640625 7.546875 -1.234375 C 7.285156 -0.828125 6.878906 -0.503906 6.328125 -0.265625 C 5.773438 -0.0351562 5.097656 0.078125 4.296875 0.078125 Z M 4.296875 0.078125 "/></g></g></g><g fill="#231f20" fill-opacity="1"><g transform="translate(147.853018, 263.865275)"><g><path d="M 1.59375 -9.796875 L 2.625 -9.796875 L 2.625 0 L 1.59375 0 Z M 1.59375 -9.796875 "/></g></g></g><g fill="#231f20" fill-opacity="1"><g transform="translate(159.90463, 263.865275)"><g><path d="M 5.859375 0.078125 C 4.878906 0.078125 4 -0.132812 3.21875 -0.5625 C 2.445312 -0.988281 1.835938 -1.582031 1.390625 -2.34375 C 0.953125 -3.101562 0.734375 -3.957031 0.734375 -4.90625 C 0.734375 -5.84375 0.953125 -6.691406 1.390625 -7.453125 C 1.835938 -8.210938 2.453125 -8.804688 3.234375 -9.234375 C 4.015625 -9.671875 4.890625 -9.890625 5.859375 -9.890625 C 6.585938 -9.890625 7.257812 -9.765625 7.875 -9.515625 C 8.5 -9.273438 9.023438 -8.921875 9.453125 -8.453125 L 8.796875 -7.796875 C 8.023438 -8.566406 7.054688 -8.953125 5.890625 -8.953125 C 5.117188 -8.953125 4.414062 -8.773438 3.78125 -8.421875 C 3.144531 -8.066406 2.644531 -7.582031 2.28125 -6.96875 C 1.925781 -6.351562 1.75 -5.664062 1.75 -4.90625 C 1.75 -4.132812 1.925781 -3.441406 2.28125 -2.828125 C 2.644531 -2.210938 3.144531 -1.726562 3.78125 -1.375 C 4.414062 -1.019531 5.117188 -0.84375 5.890625 -0.84375 C 7.066406 -0.84375 8.035156 -1.234375 8.796875 -2.015625 L 9.453125 -1.359375 C 9.023438 -0.890625 8.5 -0.53125 7.875 -0.28125 C 7.25 -0.0390625 6.578125 0.078125 5.859375 0.078125 Z M 5.859375 0.078125 "/></g></g></g><g fill="#231f20" fill-opacity="1"><g transform="translate(177.790989, 263.865275)"><g/></g></g><g fill="#231f20" fill-opacity="1"><g transform="translate(189.282911, 263.865275)"><g><path d="M 4.296875 0.078125 C 3.566406 0.078125 2.867188 -0.0351562 2.203125 -0.265625 C 1.535156 -0.492188 1.019531 -0.800781 0.65625 -1.1875 L 1.0625 -1.984375 C 1.414062 -1.628906 1.882812 -1.34375 2.46875 -1.125 C 3.0625 -0.90625 3.671875 -0.796875 4.296875 -0.796875 C 5.171875 -0.796875 5.828125 -0.957031 6.265625 -1.28125 C 6.710938 -1.601562 6.9375 -2.019531 6.9375 -2.53125 C 6.9375 -2.925781 6.816406 -3.238281 6.578125 -3.46875 C 6.335938 -3.707031 6.046875 -3.890625 5.703125 -4.015625 C 5.359375 -4.140625 4.875 -4.273438 4.25 -4.421875 C 3.519531 -4.609375 2.929688 -4.785156 2.484375 -4.953125 C 2.046875 -5.128906 1.671875 -5.394531 1.359375 -5.75 C 1.046875 -6.101562 0.890625 -6.585938 0.890625 -7.203125 C 0.890625 -7.691406 1.019531 -8.140625 1.28125 -8.546875 C 1.550781 -8.953125 1.953125 -9.273438 2.484375 -9.515625 C 3.023438 -9.765625 3.703125 -9.890625 4.515625 -9.890625 C 5.066406 -9.890625 5.609375 -9.8125 6.140625 -9.65625 C 6.679688 -9.5 7.148438 -9.285156 7.546875 -9.015625 L 7.203125 -8.1875 C 6.785156 -8.457031 6.34375 -8.660156 5.875 -8.796875 C 5.414062 -8.929688 4.960938 -9 4.515625 -9 C 3.648438 -9 3 -8.832031 2.5625 -8.5 C 2.132812 -8.175781 1.921875 -7.75 1.921875 -7.21875 C 1.921875 -6.832031 2.035156 -6.519531 2.265625 -6.28125 C 2.503906 -6.039062 2.800781 -5.859375 3.15625 -5.734375 C 3.519531 -5.609375 4.007812 -5.46875 4.625 -5.3125 C 5.34375 -5.132812 5.921875 -4.957031 6.359375 -4.78125 C 6.804688 -4.613281 7.179688 -4.351562 7.484375 -4 C 7.796875 -3.65625 7.953125 -3.1875 7.953125 -2.59375 C 7.953125 -2.09375 7.816406 -1.640625 7.546875 -1.234375 C 7.285156 -0.828125 6.878906 -0.503906 6.328125 -0.265625 C 5.773438 -0.0351562 5.097656 0.078125 4.296875 0.078125 Z M 4.296875 0.078125 "/></g></g></g><g fill="#231f20" fill-opacity="1"><g transform="translate(205.714085, 263.865275)"><g><path d="M 3.5 -8.90625 L 0.0625 -8.90625 L 0.0625 -9.796875 L 7.984375 -9.796875 L 7.984375 -8.90625 L 4.53125 -8.90625 L 4.53125 0 L 3.5 0 Z M 3.5 -8.90625 "/></g></g></g><g fill="#231f20" fill-opacity="1"><g transform="translate(221.571579, 263.865275)"><g><path d="M 5.546875 0.078125 C 4.273438 0.078125 3.285156 -0.28125 2.578125 -1 C 1.867188 -1.726562 1.515625 -2.789062 1.515625 -4.1875 L 1.515625 -9.796875 L 2.546875 -9.796875 L 2.546875 -4.234375 C 2.546875 -3.085938 2.800781 -2.234375 3.3125 -1.671875 C 3.832031 -1.117188 4.578125 -0.84375 5.546875 -0.84375 C 6.523438 -0.84375 7.269531 -1.117188 7.78125 -1.671875 C 8.289062 -2.234375 8.546875 -3.085938 8.546875 -4.234375 L 8.546875 -9.796875 L 9.5625 -9.796875 L 9.5625 -4.1875 C 9.5625 -2.789062 9.207031 -1.726562 8.5 -1 C 7.800781 -0.28125 6.816406 0.078125 5.546875 0.078125 Z M 5.546875 0.078125 "/></g></g></g><g fill="#231f20" fill-opacity="1"><g transform="translate(240.479368, 263.865275)"><g><path d="M 1.59375 -9.796875 L 5.59375 -9.796875 C 6.625 -9.796875 7.535156 -9.585938 8.328125 -9.171875 C 9.117188 -8.753906 9.734375 -8.175781 10.171875 -7.4375 C 10.617188 -6.695312 10.84375 -5.851562 10.84375 -4.90625 C 10.84375 -3.945312 10.617188 -3.097656 10.171875 -2.359375 C 9.734375 -1.617188 9.117188 -1.039062 8.328125 -0.625 C 7.535156 -0.207031 6.625 0 5.59375 0 L 1.59375 0 Z M 5.53125 -0.890625 C 6.382812 -0.890625 7.132812 -1.0625 7.78125 -1.40625 C 8.425781 -1.75 8.925781 -2.21875 9.28125 -2.8125 C 9.632812 -3.414062 9.8125 -4.113281 9.8125 -4.90625 C 9.8125 -5.6875 9.632812 -6.375 9.28125 -6.96875 C 8.925781 -7.570312 8.425781 -8.046875 7.78125 -8.390625 C 7.132812 -8.734375 6.382812 -8.90625 5.53125 -8.90625 L 2.625 -8.90625 L 2.625 -0.890625 Z M 5.53125 -0.890625 "/></g></g></g><g fill="#231f20" fill-opacity="1"><g transform="translate(259.862889, 263.865275)"><g><path d="M 1.59375 -9.796875 L 2.625 -9.796875 L 2.625 0 L 1.59375 0 Z M 1.59375 -9.796875 "/></g></g></g><g fill="#231f20" fill-opacity="1"><g transform="translate(271.914501, 263.865275)"><g><path d="M 5.875 0.078125 C 4.90625 0.078125 4.023438 -0.132812 3.234375 -0.5625 C 2.453125 -1 1.835938 -1.59375 1.390625 -2.34375 C 0.953125 -3.101562 0.734375 -3.957031 0.734375 -4.90625 C 0.734375 -5.84375 0.953125 -6.6875 1.390625 -7.4375 C 1.835938 -8.195312 2.453125 -8.796875 3.234375 -9.234375 C 4.023438 -9.671875 4.90625 -9.890625 5.875 -9.890625 C 6.851562 -9.890625 7.726562 -9.671875 8.5 -9.234375 C 9.28125 -8.804688 9.894531 -8.210938 10.34375 -7.453125 C 10.789062 -6.691406 11.015625 -5.84375 11.015625 -4.90625 C 11.015625 -3.957031 10.789062 -3.101562 10.34375 -2.34375 C 9.894531 -1.582031 9.28125 -0.988281 8.5 -0.5625 C 7.726562 -0.132812 6.851562 0.078125 5.875 0.078125 Z M 5.875 -0.84375 C 6.65625 -0.84375 7.359375 -1.015625 7.984375 -1.359375 C 8.609375 -1.710938 9.097656 -2.195312 9.453125 -2.8125 C 9.804688 -3.4375 9.984375 -4.132812 9.984375 -4.90625 C 9.984375 -5.664062 9.804688 -6.351562 9.453125 -6.96875 C 9.097656 -7.59375 8.609375 -8.078125 7.984375 -8.421875 C 7.359375 -8.773438 6.65625 -8.953125 5.875 -8.953125 C 5.101562 -8.953125 4.398438 -8.773438 3.765625 -8.421875 C 3.140625 -8.078125 2.644531 -7.59375 2.28125 -6.96875 C 1.925781 -6.351562 1.75 -5.664062 1.75 -4.90625 C 1.75 -4.132812 1.925781 -3.4375 2.28125 -2.8125 C 2.644531 -2.195312 3.140625 -1.710938 3.765625 -1.359375 C 4.398438 -1.015625 5.101562 -0.84375 5.875 -0.84375 Z M 5.875 -0.84375 "/></g></g></g><g fill="#231f20" fill-opacity="1"><g transform="translate(74.795957, 138.034714)"><g><path d="M 23.84375 -11.453125 C 23.84375 -6.273438 22.195312 -2.785156 18.90625 -0.984375 L 24.484375 5.4375 L 16.796875 5.4375 L 12.765625 0.359375 L 12.75 0.34375 L 12.75 0.328125 L 12.734375 0.3125 C 9.148438 0.3125 6.398438 -0.691406 4.484375 -2.703125 C 2.578125 -4.710938 1.625 -7.640625 1.625 -11.484375 C 1.625 -15.285156 2.570312 -18.1875 4.46875 -20.1875 C 6.375 -22.195312 9.140625 -23.203125 12.765625 -23.203125 C 16.398438 -23.203125 19.15625 -22.207031 21.03125 -20.21875 C 22.90625 -18.226562 23.84375 -15.304688 23.84375 -11.453125 Z M 8.125 -11.453125 C 8.125 -7.035156 9.660156 -4.828125 12.734375 -4.828125 C 14.296875 -4.828125 15.453125 -5.363281 16.203125 -6.4375 C 16.960938 -7.507812 17.34375 -9.179688 17.34375 -11.453125 C 17.34375 -13.734375 16.957031 -15.414062 16.1875 -16.5 C 15.425781 -17.59375 14.285156 -18.140625 12.765625 -18.140625 C 9.671875 -18.140625 8.125 -15.910156 8.125 -11.453125 Z M 8.125 -11.453125 "/></g></g></g><g fill="#231f20" fill-opacity="1"><g transform="translate(107.55377, 138.034714)"><g><path d="M 21.890625 -22.84375 L 21.890625 -9.09375 C 21.890625 -6.101562 21.039062 -3.785156 19.34375 -2.140625 C 17.65625 -0.503906 15.21875 0.3125 12.03125 0.3125 C 8.914062 0.3125 6.519531 -0.484375 4.84375 -2.078125 C 3.175781 -3.671875 2.34375 -5.960938 2.34375 -8.953125 L 2.34375 -22.84375 L 8.546875 -22.84375 L 8.546875 -9.4375 C 8.546875 -7.820312 8.847656 -6.648438 9.453125 -5.921875 C 10.054688 -5.191406 10.945312 -4.828125 12.125 -4.828125 C 13.382812 -4.828125 14.296875 -5.1875 14.859375 -5.90625 C 15.429688 -6.632812 15.71875 -7.820312 15.71875 -9.46875 L 15.71875 -22.84375 Z M 21.890625 -22.84375 "/></g></g></g><g fill="#231f20" fill-opacity="1"><g transform="translate(139.030645, 138.034714)"><g><path d="M 23.84375 -11.453125 C 23.84375 -7.609375 22.898438 -4.6875 21.015625 -2.6875 C 19.128906 -0.6875 16.367188 0.3125 12.734375 0.3125 C 9.148438 0.3125 6.398438 -0.691406 4.484375 -2.703125 C 2.578125 -4.710938 1.625 -7.640625 1.625 -11.484375 C 1.625 -15.285156 2.570312 -18.1875 4.46875 -20.1875 C 6.375 -22.195312 9.140625 -23.203125 12.765625 -23.203125 C 16.398438 -23.203125 19.15625 -22.207031 21.03125 -20.21875 C 22.90625 -18.226562 23.84375 -15.304688 23.84375 -11.453125 Z M 8.125 -11.453125 C 8.125 -7.035156 9.660156 -4.828125 12.734375 -4.828125 C 14.296875 -4.828125 15.453125 -5.363281 16.203125 -6.4375 C 16.960938 -7.507812 17.34375 -9.179688 17.34375 -11.453125 C 17.34375 -13.734375 16.957031 -15.414062 16.1875 -16.5 C 15.425781 -17.59375 14.285156 -18.140625 12.765625 -18.140625 C 9.671875 -18.140625 8.125 -15.910156 8.125 -11.453125 Z M 8.125 -11.453125 "/></g></g></g><g fill="#231f20" fill-opacity="1"><g transform="translate(171.788451, 138.034714)"><g><path d="M 12.640625 -18.109375 C 11.171875 -18.109375 10.023438 -17.503906 9.203125 -16.296875 C 8.378906 -15.097656 7.96875 -13.441406 7.96875 -11.328125 C 7.96875 -6.929688 9.640625 -4.734375 12.984375 -4.734375 C 13.992188 -4.734375 14.972656 -4.875 15.921875 -5.15625 C 16.867188 -5.4375 17.820312 -5.773438 18.78125 -6.171875 L 18.78125 -0.953125 C 16.875 -0.109375 14.71875 0.3125 12.3125 0.3125 C 8.863281 0.3125 6.21875 -0.6875 4.375 -2.6875 C 2.539062 -4.6875 1.625 -7.578125 1.625 -11.359375 C 1.625 -13.722656 2.066406 -15.800781 2.953125 -17.59375 C 3.847656 -19.382812 5.128906 -20.757812 6.796875 -21.71875 C 8.472656 -22.6875 10.441406 -23.171875 12.703125 -23.171875 C 15.171875 -23.171875 17.53125 -22.632812 19.78125 -21.5625 L 17.890625 -16.703125 C 17.046875 -17.097656 16.203125 -17.429688 15.359375 -17.703125 C 14.515625 -17.972656 13.609375 -18.109375 12.640625 -18.109375 Z M 12.640625 -18.109375 "/></g></g></g><g fill="#231f20" fill-opacity="1"><g transform="translate(199.813039, 138.034714)"><g/></g></g><g fill="#231f20" fill-opacity="1"><g transform="translate(215.387554, 138.034714)"><g><path d="M 2.46875 -22.84375 L 10.4375 -22.84375 C 13.539062 -22.84375 15.84375 -22.378906 17.34375 -21.453125 C 18.851562 -20.535156 19.609375 -19.101562 19.609375 -17.15625 C 19.609375 -15.875 19.28125 -14.78125 18.625 -13.875 C 17.96875 -12.96875 17.101562 -12.382812 16.03125 -12.125 L 16.03125 -11.96875 C 17.445312 -11.59375 18.472656 -10.96875 19.109375 -10.09375 C 19.742188 -9.21875 20.0625 -8.082031 20.0625 -6.6875 C 20.0625 -4.613281 19.28125 -2.976562 17.71875 -1.78125 C 16.164062 -0.59375 14.046875 0 11.359375 0 L 2.46875 0 Z M 8.640625 -14.078125 L 10.5 -14.078125 C 11.382812 -14.078125 12.066406 -14.257812 12.546875 -14.625 C 13.035156 -14.988281 13.28125 -15.53125 13.28125 -16.25 C 13.28125 -17.53125 12.3125 -18.171875 10.375 -18.171875 L 8.640625 -18.171875 Z M 8.640625 -9.5625 L 8.640625 -4.765625 L 10.8125 -4.765625 C 12.738281 -4.765625 13.703125 -5.578125 13.703125 -7.203125 C 13.703125 -7.960938 13.441406 -8.546875 12.921875 -8.953125 C 12.410156 -9.359375 11.664062 -9.5625 10.6875 -9.5625 Z M 8.640625 -9.5625 "/></g></g></g><g fill="#231f20" fill-opacity="1"><g transform="translate(244.208834, 138.034714)"><g><path d="M 16.484375 0 L 15.359375 -4.28125 L 7.9375 -4.28125 L 6.78125 0 L 0 0 L 7.453125 -22.9375 L 15.6875 -22.9375 L 23.234375 0 Z M 14.078125 -9.34375 L 13.09375 -13.09375 C 12.863281 -13.925781 12.582031 -15.003906 12.25 -16.328125 C 11.925781 -17.648438 11.710938 -18.597656 11.609375 -19.171875 C 11.515625 -18.640625 11.328125 -17.765625 11.046875 -16.546875 C 10.773438 -15.328125 10.164062 -12.925781 9.21875 -9.34375 Z M 14.078125 -9.34375 "/></g></g></g><g fill="#231f20" fill-opacity="1"><g transform="translate(274.701568, 138.034714)"><g><path d="M 23.84375 -11.453125 C 23.84375 -7.609375 22.898438 -4.6875 21.015625 -2.6875 C 19.128906 -0.6875 16.367188 0.3125 12.734375 0.3125 C 9.148438 0.3125 6.398438 -0.691406 4.484375 -2.703125 C 2.578125 -4.710938 1.625 -7.640625 1.625 -11.484375 C 1.625 -15.285156 2.570312 -18.1875 4.46875 -20.1875 C 6.375 -22.195312 9.140625 -23.203125 12.765625 -23.203125 C 16.398438 -23.203125 19.15625 -22.207031 21.03125 -20.21875 C 22.90625 -18.226562 23.84375 -15.304688 23.84375 -11.453125 Z M 8.125 -11.453125 C 8.125 -7.035156 9.660156 -4.828125 12.734375 -4.828125 C 14.296875 -4.828125 15.453125 -5.363281 16.203125 -6.4375 C 16.960938 -7.507812 17.34375 -9.179688 17.34375 -11.453125 C 17.34375 -13.734375 16.957031 -15.414062 16.1875 -16.5 C 15.425781 -17.59375 14.285156 -18.140625 12.765625 -18.140625 C 9.671875 -18.140625 8.125 -15.910156 8.125 -11.453125 Z M 8.125 -11.453125 "/></g></g></g><g clip-path="url(#a38a3ea846)"><path fill="#231f20" d="M 91.875 151.335938 L 283.125 151.335938 L 283.125 245.214844 L 91.875 245.214844 Z M 91.875 151.335938 " fill-opacity="1" fill-rule="nonzero"/></g><g clip-path="url(#de2b31bf27)"><path fill="#231f20" d="M 225.011719 173.871094 L 225.011719 174.730469 C 224.648438 179.453125 224.464844 181.835938 224.105469 186.628906 C 223.921875 186.613281 223.832031 186.601562 223.648438 186.585938 C 223.285156 182.046875 223.109375 179.761719 222.738281 175.15625 L 222.738281 177.777344 C 222.558594 179.835938 222.464844 180.875 222.28125 182.957031 C 221.550781 182.519531 221.183594 182.300781 220.445312 181.859375 C 220.261719 182.191406 220.171875 182.359375 219.984375 182.695312 C 219.796875 182.320312 219.707031 182.128906 219.523438 181.75 C 219.335938 173.867188 219.246094 169.910156 219.058594 161.976562 L 219.058594 163.769531 C 218.503906 167.945312 218.222656 170.054688 217.664062 174.3125 C 217.480469 173.921875 217.382812 173.726562 217.199219 173.332031 C 216.824219 175.089844 216.636719 175.976562 216.261719 177.753906 C 215.886719 176.246094 215.699219 175.492188 215.324219 173.972656 C 214.945312 171.71875 214.761719 170.585938 214.382812 168.308594 C 214.195312 173.445312 214.101562 176.019531 213.910156 181.179688 C 213.53125 178.558594 213.347656 177.238281 212.964844 174.589844 C 212.773438 174.566406 212.679688 174.554688 212.492188 174.535156 L 212.492188 177.328125 C 212.300781 182.898438 212.207031 185.6875 212.019531 191.28125 C 211.636719 194.253906 211.445312 195.75 211.066406 198.75 C 210.875 198.75 210.78125 198.75 210.59375 198.75 C 210.398438 198.375 210.304688 198.1875 210.113281 197.8125 L 210.113281 196.871094 C 209.921875 191.21875 209.828125 188.386719 209.632812 182.710938 C 209.0625 178.519531 208.777344 176.410156 208.199219 172.175781 C 208.007812 172.535156 207.914062 172.714844 207.722656 173.078125 C 207.335938 170.378906 207.144531 169.019531 206.761719 166.300781 C 206.566406 173.914062 206.46875 177.730469 206.277344 185.375 C 206.085938 185.363281 205.988281 185.359375 205.796875 185.351562 L 205.3125 184.371094 C 205.121094 177.835938 205.027344 174.5625 204.832031 168.011719 C 204.445312 164.511719 204.25 162.757812 203.867188 159.242188 C 203.671875 167.703125 203.574219 171.941406 203.382812 180.425781 C 202.996094 180.40625 202.800781 180.394531 202.414062 180.375 C 202.214844 185.785156 202.121094 188.492188 201.925781 193.921875 C 201.339844 193.523438 201.050781 193.328125 200.464844 192.929688 C 200.078125 184.753906 199.882812 180.65625 199.496094 172.441406 C 199.300781 172.433594 199.207031 172.425781 199.007812 172.414062 C 199.007812 177.878906 199.007812 180.617188 199.007812 186.082031 C 198.613281 187.242188 198.421875 187.824219 198.03125 188.992188 C 197.445312 188.199219 197.152344 187.800781 196.566406 187.003906 L 196.566406 187.984375 C 196.371094 188.375 196.273438 188.570312 196.078125 188.960938 C 195.882812 188.566406 195.785156 188.367188 195.585938 187.972656 C 195.390625 179.714844 195.292969 175.589844 195.097656 167.324219 C 194.707031 163.378906 194.511719 161.402344 194.117188 157.449219 C 193.921875 157.832031 193.828125 158.023438 193.628906 158.410156 C 193.433594 170.609375 193.332031 176.710938 193.140625 188.921875 C 192.941406 188.527344 192.847656 188.328125 192.652344 187.933594 L 192.652344 185.964844 C 192.0625 185.167969 191.765625 184.773438 191.179688 183.976562 C 190.789062 173.316406 190.585938 167.980469 190.195312 157.3125 C 190 157.703125 189.902344 157.902344 189.707031 158.292969 C 189.507812 168.164062 189.410156 173.101562 189.214844 182.976562 C 188.820312 181.789062 188.628906 181.195312 188.230469 180.007812 C 188.035156 180.40625 187.941406 180.597656 187.742188 180.996094 C 187.546875 180.597656 187.445312 180.402344 187.25 180.007812 C 186.859375 175.664062 186.664062 173.488281 186.269531 169.144531 C 185.878906 164.40625 185.679688 162.039062 185.285156 157.304688 C 185.089844 169.554688 184.988281 175.675781 184.796875 187.914062 C 184.207031 189.101562 183.910156 189.699219 183.324219 190.886719 C 183.125 191.277344 183.03125 191.480469 182.832031 191.875 C 182.636719 191.476562 182.539062 191.285156 182.34375 190.890625 L 182.34375 187.933594 C 181.949219 183.601562 181.753906 181.4375 181.363281 177.117188 L 181.363281 179.082031 C 181.167969 179.480469 181.066406 179.683594 180.875 180.078125 C 180.480469 176.546875 180.285156 174.78125 179.894531 171.257812 L 179.894531 184.03125 C 179.5 185.613281 179.308594 186.402344 178.914062 187.980469 C 178.71875 187.980469 178.621094 187.984375 178.425781 187.988281 C 178.230469 187.597656 178.132812 187.402344 177.933594 187.015625 L 177.933594 182.117188 C 177.546875 180.953125 177.351562 180.367188 176.960938 179.210938 C 176.566406 176.878906 176.375 175.714844 175.984375 173.390625 L 175.984375 187.058594 C 175.207031 189.027344 174.8125 190.011719 174.039062 191.964844 C 173.648438 190.417969 173.453125 189.644531 173.066406 188.105469 C 172.289062 181.148438 171.902344 177.6875 171.125 170.808594 L 171.125 173.703125 C 170.9375 177.1875 170.835938 178.929688 170.644531 182.402344 C 170.253906 185.117188 170.066406 186.46875 169.675781 189.167969 C 169.289062 187.644531 169.097656 186.886719 168.714844 185.375 C 168.328125 184.625 168.136719 184.253906 167.75 183.511719 C 167.75 177.792969 167.75 174.9375 167.75 169.21875 C 167.175781 166.617188 166.886719 165.324219 166.308594 162.75 L 166.308594 163.699219 C 166.117188 170.546875 166.023438 173.96875 165.835938 180.792969 C 165.640625 180.425781 165.550781 180.242188 165.355469 179.878906 C 165.167969 180.273438 165.070312 180.46875 164.878906 180.863281 L 164.878906 184.628906 C 164.496094 185.78125 164.304688 186.355469 163.925781 187.5 C 163.734375 187.132812 163.636719 186.953125 163.449219 186.585938 C 163.449219 185.464844 163.449219 184.902344 163.449219 183.78125 C 163.257812 174.441406 163.164062 169.777344 162.972656 160.476562 L 162.972656 162.34375 C 162.59375 171.746094 162.40625 176.425781 162.027344 185.738281 C 161.648438 185.019531 161.457031 184.664062 161.078125 183.953125 C 160.511719 179.1875 160.230469 176.824219 159.667969 172.136719 L 159.667969 174.890625 C 159.476562 180.050781 159.386719 182.625 159.195312 187.761719 C 158.445312 190.367188 158.074219 191.660156 157.324219 194.210938 C 157.140625 193.855469 157.050781 193.675781 156.863281 193.320312 L 156.863281 182.5 C 156.488281 181.816406 156.300781 181.476562 155.933594 180.804688 L 155.933594 181.699219 C 155.746094 182.078125 155.65625 182.265625 155.46875 182.644531 C 155.285156 182.304688 155.195312 182.140625 155.007812 181.804688 C 154.640625 177.214844 154.453125 174.933594 154.085938 170.40625 L 154.085938 173.0625 C 153.714844 181.980469 153.53125 186.40625 153.167969 195.203125 C 152.984375 194.855469 152.890625 194.683594 152.710938 194.339844 C 152.527344 188.742188 152.433594 185.949219 152.25 180.390625 C 151.523438 177.351562 151.15625 175.855469 150.433594 172.917969 C 150.070312 180.21875 149.890625 183.839844 149.53125 191.03125 C 149.351562 190.703125 149.261719 190.539062 149.082031 190.210938 C 148.542969 190.589844 148.273438 190.777344 147.734375 191.152344 C 147.203125 180.445312 146.933594 175.15625 146.398438 164.734375 C 146.226562 165.125 146.136719 165.320312 145.960938 165.710938 L 145.960938 191.273438 C 145.605469 192.289062 145.429688 192.789062 145.082031 193.789062 C 144.902344 193.46875 144.816406 193.3125 144.636719 192.996094 L 144.636719 190.554688 C 144.464844 188.621094 144.375 187.65625 144.199219 185.738281 C 143.675781 186.132812 143.410156 186.332031 142.890625 186.71875 C 142.371094 185.832031 142.109375 185.394531 141.597656 184.542969 L 141.597656 182.183594 C 141.078125 182.601562 140.820312 182.808594 140.3125 183.214844 C 139.796875 176.828125 139.542969 173.6875 139.035156 167.523438 L 139.035156 169.804688 C 138.867188 171.992188 138.785156 173.082031 138.617188 175.253906 C 138.277344 172.339844 138.109375 170.902344 137.773438 168.066406 L 137.773438 180.75 C 137.4375 182.027344 137.273438 182.660156 136.941406 183.910156 C 136.773438 183.949219 136.695312 183.964844 136.523438 184 L 136.523438 185.464844 C 136.359375 185.792969 136.28125 185.953125 136.113281 186.277344 C 135.949219 186.015625 135.863281 185.890625 135.699219 185.632812 L 135.699219 178.402344 C 135.371094 177.351562 135.207031 176.832031 134.878906 175.8125 L 134.878906 179.382812 C 134.550781 187.1875 134.390625 191.039062 134.066406 198.636719 C 133.738281 198.632812 133.578125 198.628906 133.257812 198.628906 C 132.613281 193.355469 132.292969 190.789062 131.660156 185.828125 C 131.339844 186.984375 131.179688 187.550781 130.867188 188.671875 C 130.394531 184.789062 130.160156 182.894531 129.691406 179.203125 L 129.691406 188.257812 C 129.382812 190.394531 129.226562 191.445312 128.917969 193.511719 C 128.765625 193.273438 128.6875 193.15625 128.535156 192.925781 C 128.535156 190.402344 128.535156 189.140625 128.535156 186.621094 C 128.226562 186.703125 128.074219 186.746094 127.769531 186.824219 C 127.46875 184.683594 127.3125 183.628906 127.011719 181.5625 C 126.710938 187.28125 126.558594 190.089844 126.261719 195.597656 C 125.964844 193.710938 125.8125 192.785156 125.515625 190.972656 L 125.515625 192.726562 C 125.367188 193.214844 125.292969 193.460938 125.148438 193.9375 C 125 193.726562 124.929688 193.621094 124.78125 193.410156 C 124.78125 191.347656 124.78125 190.316406 124.78125 188.253906 C 124.488281 187.878906 124.339844 187.695312 124.046875 187.339844 L 124.046875 184.535156 C 123.757812 182.632812 123.613281 181.703125 123.328125 179.894531 C 123.039062 186.863281 122.898438 190.273438 122.613281 196.941406 C 122.328125 194.804688 122.183594 193.765625 121.902344 191.730469 C 121.621094 192.214844 121.480469 192.449219 121.203125 192.914062 C 121.0625 192.734375 120.996094 192.644531 120.855469 192.476562 L 120.855469 190.453125 C 120.441406 189.765625 120.234375 189.433594 119.828125 188.808594 C 119.554688 184.832031 119.417969 182.898438 119.148438 179.148438 C 119.011719 185.488281 118.945312 188.621094 118.8125 194.789062 C 118.679688 194.625 118.609375 194.539062 118.480469 194.378906 C 118.210938 189.101562 118.078125 186.535156 117.816406 181.574219 C 117.554688 181.238281 117.421875 181.085938 117.164062 180.792969 L 117.164062 188.132812 C 116.902344 189.644531 116.777344 190.378906 116.519531 191.800781 C 116.136719 191.433594 115.945312 191.257812 115.566406 190.9375 L 115.566406 188.160156 C 115.316406 185.925781 115.191406 184.847656 114.941406 182.785156 C 114.699219 189.292969 114.574219 192.429688 114.328125 198.464844 C 114.207031 198.464844 114.148438 198.460938 114.023438 198.460938 C 113.902344 198.316406 113.84375 198.246094 113.722656 198.105469 L 113.722656 197.753906 C 113.605469 197.332031 113.542969 197.128906 113.421875 196.726562 C 113.183594 195.226562 113.0625 194.511719 112.828125 193.144531 C 112.589844 192.976562 112.476562 192.894531 112.242188 192.746094 C 112.011719 193.105469 111.898438 193.28125 111.671875 193.617188 C 111.558594 193.542969 111.5 193.507812 111.386719 193.441406 L 111.386719 191.679688 C 111.160156 191.46875 111.046875 191.371094 110.824219 191.199219 L 110.824219 209.539062 C 110.9375 209.550781 110.992188 209.558594 111.101562 209.566406 C 111.328125 208.210938 111.441406 207.488281 111.671875 205.957031 C 111.898438 205.875 112.011719 205.828125 112.246094 205.714844 C 112.480469 205.859375 112.59375 205.929688 112.828125 206.070312 C 113.0625 203.691406 113.183594 202.445312 113.421875 199.839844 C 113.78125 199.464844 113.960938 199.265625 114.332031 198.835938 C 114.453125 198.988281 114.511719 199.0625 114.636719 199.222656 C 114.636719 201.171875 114.636719 202.148438 114.636719 204.101562 C 114.882812 208.097656 115.007812 210.167969 115.253906 214.460938 L 115.253906 214.070312 C 115.503906 211.339844 115.628906 209.917969 115.882812 206.96875 C 116.136719 207.574219 116.265625 207.886719 116.519531 208.523438 C 116.648438 208.425781 116.714844 208.375 116.839844 208.269531 C 117.101562 211.460938 117.230469 213.101562 117.492188 216.488281 C 117.75 212.855469 117.882812 210.976562 118.148438 207.101562 C 118.414062 204.675781 118.542969 203.421875 118.8125 200.84375 C 118.945312 201.046875 119.015625 201.144531 119.148438 201.351562 C 119.28125 207.984375 119.351562 211.347656 119.488281 218.164062 L 119.488281 216.726562 C 119.621094 215.484375 119.691406 214.855469 119.828125 213.578125 C 119.964844 213.660156 120.03125 213.699219 120.167969 213.785156 L 120.167969 212.308594 C 120.304688 211.988281 120.375 211.824219 120.511719 211.492188 C 120.785156 209.636719 120.925781 208.679688 121.207031 206.71875 C 121.484375 207.417969 121.621094 207.773438 121.902344 208.5 C 122.1875 205.246094 122.328125 203.578125 122.613281 200.160156 C 122.753906 200.382812 122.824219 200.492188 122.96875 200.722656 C 123.113281 207.679688 123.183594 211.199219 123.332031 218.316406 C 123.757812 215.949219 123.976562 214.71875 124.414062 212.175781 C 124.707031 209.570312 124.851562 208.238281 125.148438 205.519531 C 125.445312 206.503906 125.59375 207.003906 125.890625 208.027344 L 125.890625 206.257812 C 126.039062 204.398438 126.113281 203.457031 126.261719 201.5625 C 126.414062 201.8125 126.488281 201.941406 126.636719 202.199219 C 126.636719 202.921875 126.632812 203.277344 126.632812 204 C 126.785156 209.804688 126.863281 212.734375 127.011719 218.648438 C 127.3125 216.855469 127.46875 215.941406 127.773438 214.074219 C 127.921875 214.378906 128 214.527344 128.152344 214.835938 C 128.304688 214.898438 128.382812 214.925781 128.535156 214.984375 C 128.6875 211.515625 128.765625 209.765625 128.921875 206.230469 C 129.074219 206.511719 129.152344 206.652344 129.304688 206.9375 C 129.617188 214.179688 129.773438 217.863281 130.082031 225.34375 L 130.082031 223.386719 C 130.242188 220.082031 130.316406 218.410156 130.476562 215.046875 C 131.101562 214.472656 131.417969 214.171875 132.054688 213.546875 C 132.214844 210.605469 132.296875 209.125 132.453125 206.140625 C 132.777344 203.453125 132.9375 202.089844 133.257812 199.320312 C 133.578125 199.328125 133.742188 199.328125 134.066406 199.335938 C 134.230469 199.617188 134.308594 199.761719 134.472656 200.054688 C 134.800781 209.695312 134.960938 214.585938 135.289062 224.488281 C 135.289062 223.628906 135.292969 223.199219 135.292969 222.335938 C 135.621094 220.167969 135.785156 219.066406 136.113281 216.832031 C 136.445312 218.09375 136.609375 218.734375 136.941406 220.019531 L 136.941406 218.546875 C 137.109375 218.304688 137.191406 218.179688 137.359375 217.929688 C 137.695312 222.476562 137.859375 224.777344 138.195312 229.429688 L 138.195312 227.179688 C 138.363281 225.746094 138.449219 225.027344 138.617188 223.578125 C 138.789062 223.9375 138.871094 224.117188 139.039062 224.484375 L 139.039062 226.003906 C 139.546875 220.121094 139.800781 217.125 140.3125 211.027344 C 140.824219 213.585938 141.082031 214.882812 141.601562 217.519531 L 141.601562 215.164062 C 141.941406 214.605469 142.113281 214.328125 142.460938 213.753906 C 142.632812 213.785156 142.71875 213.800781 142.890625 213.832031 C 143.414062 214.246094 143.679688 214.453125 144.199219 214.875 L 144.199219 214.066406 C 144.554688 210.242188 144.726562 208.308594 145.082031 204.410156 C 145.253906 204.75 145.34375 204.917969 145.519531 205.261719 C 145.695312 215.453125 145.78125 220.570312 145.960938 230.855469 C 146.308594 231.632812 146.492188 232.023438 146.847656 232.8125 C 147.023438 226.214844 147.113281 222.902344 147.292969 216.25 C 147.652344 212.96875 147.828125 211.316406 148.1875 207.972656 C 148.367188 208.328125 148.453125 208.503906 148.636719 208.859375 C 148.8125 208.878906 148.902344 208.886719 149.082031 208.90625 L 149.082031 207.203125 C 149.261719 206.878906 149.351562 206.714844 149.53125 206.386719 C 149.714844 206.742188 149.800781 206.917969 149.984375 207.273438 L 149.984375 228.683594 C 150.34375 230.152344 150.527344 230.890625 150.890625 232.375 C 150.890625 229.613281 150.890625 228.230469 150.890625 225.46875 C 151.433594 224.90625 151.707031 224.613281 152.253906 224.027344 C 152.621094 215.375 152.800781 211.011719 153.167969 202.234375 C 153.351562 202.59375 153.441406 202.773438 153.628906 203.132812 C 153.628906 205.605469 153.625 206.835938 153.625 209.308594 C 153.992188 218.507812 154.179688 223.140625 154.546875 232.460938 L 154.546875 229.796875 C 154.730469 227.351562 154.824219 226.128906 155.011719 223.667969 C 155.5625 222.339844 155.839844 221.664062 156.398438 220.308594 C 156.769531 214.96875 156.957031 212.28125 157.328125 206.875 C 157.515625 206.886719 157.605469 206.890625 157.792969 206.902344 C 157.980469 207.273438 158.074219 207.457031 158.261719 207.835938 C 158.449219 207.480469 158.542969 207.304688 158.730469 206.949219 C 158.917969 207.324219 159.007812 207.511719 159.195312 207.886719 L 159.195312 209.714844 C 159.574219 218.527344 159.761719 222.953125 160.140625 231.851562 L 160.140625 229.097656 C 160.515625 224.375 160.703125 222.003906 161.078125 217.234375 C 161.648438 218.398438 161.933594 218.988281 162.5 220.167969 L 162.5 222.960938 C 162.878906 228.597656 163.070312 231.425781 163.453125 237.109375 C 163.640625 227.789062 163.734375 223.117188 163.925781 213.753906 C 164.304688 218.65625 164.496094 221.121094 164.878906 226.0625 L 164.878906 220.414062 C 165.261719 219.320312 165.453125 218.769531 165.835938 217.667969 C 166.21875 224.882812 166.40625 228.507812 166.792969 235.78125 L 166.792969 232.929688 C 166.988281 231.4375 167.078125 230.691406 167.273438 229.195312 C 167.847656 221.652344 168.140625 217.859375 168.714844 210.234375 C 169.101562 212.929688 169.292969 214.28125 169.679688 216.988281 C 170.066406 218.546875 170.257812 219.332031 170.644531 220.898438 C 171.03125 223.621094 171.226562 224.988281 171.613281 227.722656 C 171.613281 227.339844 171.613281 227.144531 171.613281 226.757812 C 171.804688 226.386719 171.90625 226.203125 172.097656 225.832031 C 172.488281 221.613281 172.675781 219.492188 173.066406 215.246094 C 173.457031 212.933594 173.648438 211.777344 174.039062 209.457031 C 174.234375 209.851562 174.332031 210.046875 174.527344 210.445312 C 174.917969 209.675781 175.109375 209.289062 175.5 208.519531 C 175.695312 208.914062 175.789062 209.109375 175.988281 209.503906 C 176.183594 218.492188 176.277344 222.988281 176.472656 231.988281 L 176.472656 226.128906 C 177.058594 224.597656 177.355469 223.828125 177.9375 222.285156 L 177.9375 210.527344 C 178.328125 209.753906 178.523438 209.363281 178.917969 208.585938 C 179.113281 208.980469 179.207031 209.179688 179.40625 209.574219 C 179.796875 218.617188 179.992188 223.144531 180.382812 232.207031 L 180.382812 229.257812 C 180.773438 228.488281 180.972656 228.101562 181.363281 227.324219 C 181.558594 227.332031 181.660156 227.335938 181.855469 227.339844 C 182.246094 219.472656 182.441406 215.53125 182.835938 207.648438 C 183.226562 208.835938 183.421875 209.429688 183.816406 210.613281 L 183.816406 208.636719 C 184.011719 208.246094 184.109375 208.050781 184.308594 207.65625 C 184.503906 208.054688 184.597656 208.253906 184.796875 208.648438 L 184.796875 236.289062 C 185.191406 237.480469 185.386719 238.074219 185.78125 239.265625 L 185.78125 236.300781 C 185.976562 235.117188 186.078125 234.527344 186.273438 233.34375 C 186.859375 227.816406 187.15625 225.050781 187.742188 219.519531 C 188.132812 220.703125 188.332031 221.296875 188.722656 222.480469 L 188.722656 219.515625 C 188.921875 219.121094 189.019531 218.921875 189.214844 218.527344 C 189.605469 226.820312 189.804688 230.964844 190.195312 239.253906 C 190.390625 238.851562 190.492188 238.652344 190.6875 238.253906 L 190.6875 220.484375 C 191.078125 218.902344 191.277344 218.109375 191.671875 216.527344 C 191.867188 216.523438 191.964844 216.523438 192.160156 216.519531 C 192.550781 214.9375 192.746094 214.144531 193.136719 212.5625 C 193.332031 212.953125 193.433594 213.152344 193.628906 213.539062 L 193.628906 239.140625 C 194.023438 239.121094 194.21875 239.113281 194.609375 239.09375 C 194.609375 236.335938 194.609375 234.964844 194.609375 232.207031 C 195 231.011719 195.195312 230.410156 195.585938 229.21875 C 195.78125 223.707031 195.882812 220.953125 196.078125 215.453125 C 196.273438 215.839844 196.371094 216.035156 196.566406 216.417969 C 196.761719 216.414062 196.859375 216.410156 197.050781 216.40625 L 197.050781 213.464844 C 197.25 212.285156 197.347656 211.695312 197.542969 210.519531 C 197.734375 210.511719 197.835938 210.511719 198.03125 210.507812 C 198.226562 210.894531 198.324219 211.085938 198.519531 211.472656 C 198.910156 219.277344 199.105469 223.175781 199.496094 230.949219 C 199.691406 230.542969 199.789062 230.339844 199.980469 229.933594 L 199.980469 227.988281 C 200.175781 218.234375 200.273438 213.363281 200.46875 203.632812 C 200.660156 204.019531 200.757812 204.210938 200.953125 204.597656 C 201.152344 204.207031 201.246094 204.011719 201.441406 203.621094 C 201.636719 203.617188 201.730469 203.617188 201.925781 203.613281 C 202.3125 211.75 202.507812 215.804688 202.894531 223.898438 L 202.894531 221 C 203.09375 220.214844 203.1875 219.820312 203.382812 219.035156 C 203.769531 226.734375 203.960938 230.574219 204.351562 238.222656 C 204.734375 232.785156 204.929688 230.074219 205.316406 224.667969 C 205.703125 220.796875 205.894531 218.863281 206.277344 215.015625 C 206.664062 218.816406 206.855469 220.710938 207.242188 224.484375 C 207.625 229.785156 207.816406 232.421875 208.199219 237.679688 C 208.390625 237.648438 208.488281 237.632812 208.679688 237.605469 C 209.3125 224.964844 209.949219 212.328125 210.589844 199.691406 C 210.78125 199.691406 210.875 199.691406 211.066406 199.6875 C 211.257812 200.0625 211.355469 200.25 211.542969 200.621094 C 211.734375 202.488281 211.828125 203.421875 212.019531 205.28125 C 212.207031 214.609375 212.300781 219.261719 212.492188 228.546875 C 213.0625 223.992188 213.347656 221.730469 213.910156 217.234375 C 214.289062 224.960938 214.476562 228.804688 214.851562 236.453125 L 214.851562 233.691406 C 215.042969 231.449219 215.136719 230.328125 215.324219 228.09375 C 215.699219 225.460938 215.886719 224.152344 216.261719 221.546875 C 216.453125 221.886719 216.542969 222.054688 216.730469 222.390625 L 216.730469 226.03125 C 217.292969 227.027344 217.570312 227.523438 218.128906 228.496094 C 218.503906 231.308594 218.6875 232.707031 219.058594 235.480469 C 219.246094 235.433594 219.335938 235.410156 219.523438 235.363281 L 219.523438 226.429688 C 219.894531 224.214844 220.078125 223.109375 220.445312 220.921875 C 220.632812 221.246094 220.722656 221.410156 220.90625 221.730469 C 221.09375 221.34375 221.183594 221.152344 221.367188 220.769531 L 221.367188 219.003906 C 221.734375 216.476562 221.914062 215.222656 222.28125 212.734375 C 222.648438 219.347656 222.832031 222.632812 223.199219 229.148438 L 223.199219 228.277344 C 223.378906 221.976562 223.464844 218.835938 223.648438 212.574219 C 223.832031 212.554688 223.921875 212.542969 224.105469 212.523438 C 224.285156 212.847656 224.378906 213.007812 224.5625 213.328125 L 224.5625 224.503906 C 224.917969 228.207031 225.101562 230.042969 225.464844 233.683594 C 225.539062 231.660156 225.617188 229.796875 225.683594 228.027344 L 225.683594 175.289062 C 225.472656 174.8125 225.296875 174.453125 225.027344 173.871094 Z M 225.011719 173.871094 " fill-opacity="1" fill-rule="nonzero"/></g><g clip-path="url(#b96e3948d0)"><path fill="#231f20" d="M 263.886719 197 C 263.777344 197.097656 263.714844 197.148438 263.605469 197.253906 C 263.492188 197.125 263.433594 197.0625 263.320312 196.929688 C 263.09375 192.445312 262.976562 190.089844 262.746094 185.15625 C 262.628906 185.15625 262.570312 185.160156 262.457031 185.167969 C 262.339844 189.449219 262.28125 191.640625 262.164062 196.125 C 261.925781 195.425781 261.808594 195.0625 261.570312 194.300781 C 261.449219 194.128906 261.386719 194.039062 261.269531 193.863281 C 261.269531 193.4375 261.265625 193.226562 261.265625 192.800781 C 261.027344 189.316406 260.90625 187.5 260.664062 183.738281 L 260.664062 191.46875 C 260.296875 191.898438 260.109375 192.128906 259.734375 192.628906 C 259.488281 190.988281 259.359375 190.136719 259.109375 188.386719 L 259.109375 188.789062 C 258.855469 191.722656 258.726562 193.246094 258.472656 196.402344 C 258.21875 195.707031 258.089844 195.347656 257.828125 194.609375 L 257.828125 195.472656 C 257.695312 195.628906 257.628906 195.707031 257.5 195.867188 C 257.371094 195.675781 257.304688 195.582031 257.175781 195.382812 L 257.175781 193.15625 C 256.914062 192.382812 256.777344 191.980469 256.511719 191.164062 L 256.511719 192.542969 C 256.378906 193.242188 256.3125 193.601562 256.179688 194.324219 C 256.046875 194.113281 255.980469 194.007812 255.84375 193.792969 C 255.710938 192.066406 255.644531 191.191406 255.507812 189.417969 C 255.097656 189.273438 254.894531 189.199219 254.480469 189.058594 L 254.480469 190.550781 C 254.34375 190.914062 254.277344 191.09375 254.136719 191.464844 C 253.863281 191.394531 253.71875 191.359375 253.441406 191.289062 L 253.441406 192.324219 C 253.300781 192.503906 253.226562 192.59375 253.085938 192.777344 C 252.945312 192.542969 252.875 192.425781 252.734375 192.183594 L 252.734375 184.757812 C 252.3125 181.386719 252.097656 179.640625 251.664062 176.050781 L 251.664062 177.695312 C 251.378906 183.222656 251.230469 186.050781 250.941406 191.828125 C 250.652344 190.648438 250.507812 190.050781 250.210938 188.824219 C 250.210938 189.515625 250.210938 189.859375 250.210938 190.542969 C 250.066406 190.742188 249.992188 190.839844 249.84375 191.042969 C 249.550781 190.289062 249.402344 189.90625 249.101562 189.125 C 248.953125 189.324219 248.878906 189.429688 248.730469 189.632812 C 248.582031 189.363281 248.503906 189.222656 248.355469 188.945312 L 248.355469 181.117188 C 247.90625 179.714844 247.679688 179 247.21875 177.535156 L 247.21875 179.394531 C 247.070312 180.5625 246.992188 181.152344 246.839844 182.347656 C 246.535156 180.734375 246.382812 179.914062 246.074219 178.25 L 246.074219 178.886719 C 245.917969 182.378906 245.839844 184.144531 245.6875 187.699219 C 245.53125 187.40625 245.453125 187.257812 245.296875 186.960938 L 245.296875 182.433594 C 244.988281 181.296875 244.832031 180.714844 244.515625 179.542969 L 244.515625 180.855469 C 244.359375 181.066406 244.28125 181.167969 244.125 181.378906 C 243.96875 181.0625 243.886719 180.898438 243.730469 180.578125 L 243.730469 179.242188 C 243.097656 178.203125 242.777344 177.671875 242.136719 176.589844 C 241.816406 173.710938 241.652344 172.25 241.328125 169.289062 C 241.007812 174.433594 240.84375 177.042969 240.519531 182.339844 C 240.359375 182.296875 240.277344 182.277344 240.113281 182.230469 C 239.949219 181.90625 239.867188 181.738281 239.703125 181.40625 L 239.703125 170.632812 C 239.375 169.625 239.210938 169.113281 238.882812 168.085938 C 238.714844 168.296875 238.628906 168.40625 238.464844 168.625 C 238.300781 177.332031 238.214844 181.71875 238.050781 190.542969 C 237.386719 192.234375 237.050781 193.101562 236.375 194.882812 C 236.035156 192.148438 235.867188 190.761719 235.53125 187.96875 L 235.53125 190.257812 C 235.191406 192.667969 235.023438 193.882812 234.679688 196.347656 C 234.507812 196.035156 234.425781 195.878906 234.25 195.5625 C 234.082031 188.09375 233.996094 184.34375 233.824219 176.800781 C 233.480469 175.457031 233.308594 174.78125 232.964844 173.414062 C 232.789062 179.046875 232.707031 181.878906 232.53125 187.570312 C 232.1875 191.332031 232.007812 193.238281 231.664062 197.078125 C 231.488281 196.753906 231.402344 196.59375 231.230469 196.265625 C 230.878906 187.238281 230.703125 182.679688 230.347656 173.472656 C 230 169.804688 229.828125 167.949219 229.472656 164.210938 C 229.296875 164.480469 229.210938 164.613281 229.03125 164.878906 C 228.855469 172.078125 228.761719 175.695312 228.589844 182.957031 C 228.410156 182.929688 228.320312 182.917969 228.144531 182.886719 C 227.609375 188.796875 227.34375 191.792969 226.808594 197.859375 C 226.625 197.519531 226.539062 197.351562 226.359375 197.011719 C 226.179688 188.546875 226.089844 184.296875 225.90625 175.761719 C 225.824219 175.585938 225.75 175.429688 225.679688 175.289062 L 225.679688 228.023438 C 226.085938 217.730469 226.347656 211.054688 226.808594 199.542969 C 226.988281 199.882812 227.078125 200.046875 227.253906 200.378906 C 227.609375 208.089844 227.789062 211.914062 228.144531 219.496094 L 228.144531 217.832031 C 228.320312 217.464844 228.410156 217.28125 228.589844 216.917969 C 228.761719 217.214844 228.855469 217.367188 229.03125 217.660156 C 229.03125 223.597656 229.03125 226.566406 229.03125 232.503906 C 229.386719 232.378906 229.5625 232.316406 229.914062 232.191406 L 229.914062 229.738281 C 230.089844 226.738281 230.175781 225.246094 230.351562 222.273438 C 230.878906 213.351562 231.140625 208.953125 231.664062 200.285156 C 231.839844 200.601562 231.925781 200.757812 232.097656 201.070312 C 232.445312 212.542969 232.621094 218.222656 232.964844 229.457031 C 233.308594 226.804688 233.480469 225.488281 233.824219 222.882812 C 234.167969 213.71875 234.339844 209.183594 234.679688 200.210938 C 234.847656 200.519531 234.933594 200.667969 235.105469 200.972656 C 235.105469 203.734375 235.101562 205.117188 235.101562 207.882812 C 235.445312 210.605469 235.613281 211.953125 235.953125 214.609375 L 235.953125 213.851562 C 236.121094 209.558594 236.207031 207.429688 236.375 203.1875 C 237.050781 204.351562 237.382812 204.917969 238.046875 206.019531 C 238.214844 215.136719 238.296875 219.667969 238.464844 228.667969 C 238.957031 228.4375 239.207031 228.320312 239.703125 228.082031 L 239.703125 215.875 C 240.027344 214.917969 240.195312 214.445312 240.515625 213.511719 C 240.683594 213.753906 240.761719 213.871094 240.925781 214.109375 L 240.925781 227.472656 C 241.734375 227.066406 242.140625 226.859375 242.9375 226.433594 L 242.9375 224.398438 C 243.097656 224.042969 243.175781 223.875 243.335938 223.523438 C 243.492188 223.449219 243.574219 223.40625 243.730469 223.328125 L 243.730469 221.328125 C 243.886719 220.453125 243.96875 220.019531 244.125 219.15625 C 244.441406 220.085938 244.597656 220.539062 244.910156 221.429688 C 245.21875 218.667969 245.375 217.308594 245.683594 214.632812 C 245.839844 214.835938 245.917969 214.9375 246.070312 215.132812 L 246.070312 222.128906 C 246.6875 222.5625 246.996094 222.765625 247.601562 223.132812 L 247.601562 221.292969 C 247.753906 220.964844 247.832031 220.796875 247.980469 220.46875 C 248.128906 216.980469 248.203125 215.253906 248.355469 211.832031 C 248.65625 211.246094 248.804688 210.960938 249.101562 210.394531 C 249.25 210.34375 249.324219 210.316406 249.476562 210.269531 L 249.476562 208.515625 C 249.621094 207.773438 249.695312 207.402344 249.84375 206.675781 C 250.136719 207.070312 250.285156 207.265625 250.578125 207.636719 L 250.578125 205.9375 C 250.726562 205.226562 250.796875 204.867188 250.941406 204.171875 C 251.085938 204.371094 251.160156 204.46875 251.304688 204.664062 C 251.449219 211.296875 251.523438 214.578125 251.664062 221.0625 C 252.09375 220.320312 252.3125 219.953125 252.734375 219.230469 L 252.734375 217.640625 C 252.875 212.035156 252.945312 209.261719 253.082031 203.785156 C 253.367188 205.203125 253.507812 205.886719 253.789062 207.230469 C 253.789062 206.617188 253.789062 206.308594 253.789062 205.699219 C 253.929688 205.457031 253.996094 205.335938 254.136719 205.101562 C 254.277344 205.265625 254.34375 205.351562 254.480469 205.511719 C 254.617188 209.664062 254.6875 211.710938 254.824219 215.753906 L 254.824219 214.277344 C 254.960938 213.011719 255.027344 212.386719 255.164062 211.152344 C 255.4375 208.683594 255.574219 207.476562 255.84375 205.132812 C 256.25 207.09375 256.445312 208.03125 256.84375 209.816406 C 256.84375 209.636719 256.84375 209.542969 256.84375 209.363281 C 257.105469 205.972656 257.242188 204.328125 257.5 201.136719 C 257.632812 201.292969 257.695312 201.367188 257.824219 201.519531 C 257.957031 201.5 258.019531 201.488281 258.148438 201.46875 L 258.148438 201.042969 C 258.28125 200.855469 258.34375 200.761719 258.472656 200.578125 C 258.597656 200.730469 258.660156 200.808594 258.792969 200.953125 C 258.917969 204.882812 258.984375 206.8125 259.109375 210.605469 C 259.238281 210.519531 259.296875 210.476562 259.425781 210.390625 L 259.425781 209.195312 C 259.800781 208.328125 259.984375 207.910156 260.355469 207.105469 C 260.601562 209.671875 260.722656 210.902344 260.964844 213.257812 C 260.964844 212.828125 260.964844 212.613281 260.964844 212.179688 C 261.210938 208.199219 261.328125 206.285156 261.570312 202.609375 C 261.6875 202.574219 261.75 202.554688 261.867188 202.515625 L 261.867188 201.5 C 261.984375 201.199219 262.042969 201.054688 262.164062 200.765625 C 262.28125 200.875 262.339844 200.929688 262.457031 201.035156 L 262.457031 211.71875 C 262.6875 211.472656 262.804688 211.347656 263.03125 211.09375 L 263.03125 210.785156 C 263.265625 206.089844 263.378906 203.855469 263.605469 199.601562 C 263.714844 199.703125 263.773438 199.753906 263.886719 199.851562 L 263.886719 200.710938 C 264 200.679688 264.054688 200.671875 264.167969 200.644531 L 264.167969 197.03125 C 264.050781 197 263.996094 196.996094 263.882812 196.980469 Z M 263.886719 197 " fill-opacity="1" fill-rule="nonzero"/></g><path stroke-linecap="butt" transform="matrix(0.75, 0, 0, 0.75, 91.874998, 197.680446)" fill="none" stroke-linejoin="miter" d="M 0.00000204417 2.498989 L 255.000019 2.498989 " stroke="#231f20" stroke-width="5" stroke-opacity="1" stroke-miterlimit="4"/></svg>